<?xml version="1.0" standalone="no"?>
<!DOCTYPE svg PUBLIC "-//W3C//DTD SVG 20010904//EN"
 "http://www.w3.org/TR/2001/REC-SVG-20010904/DTD/svg10.dtd">
<svg version="1.0" xmlns="http://www.w3.org/2000/svg"
 width="512.000000pt" height="512.000000pt" viewBox="0 0 512.000000 512.000000"
 preserveAspectRatio="xMidYMid meet">
<metadata>
Created by potrace 1.11, written by Peter Selinger 2001-2013
</metadata>
<g transform="translate(0.000000,512.000000) scale(0.100000,-0.100000)"
fill="#000000" stroke="none">
<path d="M687 4728 c-126 -26 -234 -121 -280 -246 l-21 -57 0 -1850 c0 -1017
3 -1866 6 -1885 19 -118 118 -231 248 -285 43 -18 115 -19 1895 -20 1018 -1
1870 2 1894 7 132 24 252 138 294 280 10 34 13 422 12 1903 -1 1793 -2 1862
-20 1905 -45 107 -118 184 -221 228 l-59 26 -1855 1 c-1021 0 -1872 -3 -1893
-7z m3356 -378 l307 0 0 -383 0 -382 -1787 0 -1788 0 -5 180 c-3 99 -4 271 -2
382 l3 203 162 2 c89 2 756 2 1482 1 726 -2 1458 -3 1628 -3z m307 -2300 l0
-1280 -1790 0 -1790 0 0 183 c0 325 0 1865 0 2124 l0 252 1790 1 1790 0 0
-1280z"/>
<path d="M2817 4091 c-2 -3 -3 -60 -3 -126 l1 -120 128 -3 127 -3 0 129 0 128
-125 1 c-69 0 -127 -2 -128 -6z"/>
<path d="M3330 4070 c-1 -14 -2 -71 -3 -128 l-2 -102 130 0 130 0 -1 118 c-1
64 -2 122 -3 128 -1 8 -39 11 -126 11 l-125 -2 0 -25z"/>
<path d="M3840 3967 l0 -128 128 3 127 3 0 125 0 125 -127 0 -128 0 0 -128z"/>
<path d="M2602 2748 c-13 -51 -25 -100 -27 -109 -2 -9 -33 -135 -70 -280 -79
-313 -152 -605 -166 -671 -6 -27 -15 -48 -20 -48 -4 0 -6 -6 -4 -13 3 -7 -12
-81 -33 -165 -21 -83 -36 -152 -33 -152 3 0 58 -14 121 -30 63 -17 117 -30
120 -30 3 0 7 8 8 17 1 10 87 356 190 768 l189 750 -71 18 c-92 24 -147 36
-166 37 -11 0 -22 -26 -38 -92z"/>
<path d="M1655 2350 c-164 -164 -297 -302 -295 -304 3 -3 137 -138 299 -300
168 -170 298 -293 305 -289 6 4 48 43 93 87 l82 81 -211 211 -211 212 211 210
210 211 -90 91 c-50 49 -91 90 -92 90 -1 0 -136 -135 -301 -300z"/>
<path d="M3077 2565 c-48 -47 -87 -90 -87 -95 0 -5 93 -102 207 -215 l206
-206 -211 -212 -211 -212 90 -90 90 -89 302 302 302 302 -263 263 c-144 145
-260 266 -257 270 3 4 2 5 -2 2 -4 -3 -23 11 -43 30 l-37 36 -86 -86z"/>
</g>
</svg>
